<?xml version="1.0" standalone="no"?>
<!DOCTYPE svg PUBLIC "-//W3C//DTD SVG 20010904//EN"
 "http://www.w3.org/TR/2001/REC-SVG-20010904/DTD/svg10.dtd">
<svg version="1.0" xmlns="http://www.w3.org/2000/svg"
 width="517.000000pt" height="517.000000pt" viewBox="0 0 517.000000 517.000000"
 preserveAspectRatio="xMidYMid meet">
<metadata>
Created by potrace 1.14, written by Peter Selinger 2001-2017
</metadata>
<g transform="translate(0.000000,517.000000) scale(0.100000,-0.100000)"
fill="#000000" stroke="none">
<path d="M2300 4679 c0 -29 0 -29 -60 -29 l-60 0 0 -30 0 -30 -60 0 -60 0 0
-30 c0 -30 0 -30 -59 -30 -58 0 -60 -1 -63 -27 -2 -22 -9 -29 -30 -31 -22 -3
-28 -9 -28 -27 0 -18 -7 -25 -30 -30 -29 -6 -30 -8 -30 -66 0 -59 0 -59 -30
-59 -28 0 -29 -1 -32 -57 -3 -55 -5 -58 -30 -61 -25 -3 -27 -7 -30 -60 -3 -53
-5 -57 -29 -60 -21 -2 -28 -10 -33 -33 -4 -23 -11 -29 -30 -29 -19 0 -25 -6
-28 -27 -2 -22 -9 -29 -30 -31 -26 -3 -28 -7 -28 -47 0 -58 -8 -75 -35 -75
-17 0 -25 -7 -27 -22 -2 -12 -14 -28 -27 -34 -13 -7 -28 -22 -35 -35 -6 -13
-21 -25 -33 -27 -13 -2 -23 -12 -25 -25 -2 -12 -14 -27 -27 -33 -13 -7 -28
-22 -35 -35 -6 -13 -21 -25 -33 -27 -15 -2 -23 -11 -25 -30 -2 -21 -9 -28 -30
-30 l-28 -3 0 -90 0 -89 -30 0 -31 0 3 -117 3 -118 27 -3 c25 -3 27 -7 30 -60
3 -51 5 -57 28 -62 16 -4 26 -14 28 -28 2 -13 13 -24 27 -28 14 -3 28 -17 34
-34 6 -18 18 -30 32 -32 15 -2 25 -12 29 -28 6 -24 8 -25 93 -25 l87 0 0 -62
0 -63 30 0 30 0 0 -90 0 -90 30 0 30 0 0 -90 0 -90 30 0 30 0 0 -90 0 -90 30
0 30 0 0 -60 0 -60 30 0 c27 0 30 -3 30 -30 0 -27 3 -30 30 -30 27 0 30 -3 30
-30 0 -27 3 -30 30 -30 27 0 30 -3 30 -30 0 -27 3 -30 30 -30 27 0 30 3 30 30
0 27 -3 30 -29 30 l-30 0 -3 93 -3 92 33 -3 c28 -4 32 -8 32 -33 0 -26 4 -29
30 -29 27 0 30 -3 30 -30 0 -27 3 -30 30 -30 29 0 30 2 30 43 0 38 2 43 25 45
15 1 28 -4 31 -13 7 -16 60 -21 66 -6 5 14 51 17 55 4 3 -9 -6 -13 -26 -13
l-31 0 0 -90 0 -90 -30 0 -30 0 0 -60 0 -60 -30 0 -30 0 0 -60 0 -60 -30 0
-30 0 0 -60 0 -60 -30 0 c-27 0 -30 -3 -30 -30 0 -27 -3 -30 -30 -30 l-30 0 0
-150 0 -150 30 0 30 0 0 -150 0 -150 30 0 30 0 0 -60 0 -60 30 0 c27 0 30 -3
30 -30 0 -27 3 -30 30 -30 27 0 30 -3 30 -30 l0 -30 -60 0 -60 0 0 -30 c0 -27
-3 -30 -30 -30 l-30 0 0 -60 0 -60 30 0 c27 0 30 -3 30 -30 l0 -30 540 0 540
0 0 30 c0 27 3 30 30 30 l30 0 0 60 0 60 60 0 60 0 0 30 c0 27 3 30 30 30 27
0 30 3 30 30 0 27 3 30 30 30 27 0 30 3 30 30 0 27 3 30 30 30 l30 0 0 89 c0
61 -4 91 -12 93 -9 3 -9 6 0 12 7 4 12 2 12 -3 0 -6 14 -11 30 -11 l30 0 0
180 0 180 -30 0 -30 0 0 60 0 60 -30 0 -30 0 0 150 0 150 -30 0 -30 0 0 60 0
60 30 0 c27 0 30 3 30 30 0 27 3 30 30 30 l30 0 0 150 0 150 31 0 31 0 -4 71
c-2 39 -2 66 0 60 2 -6 17 -11 33 -11 l29 0 0 90 0 90 30 0 c27 0 30 3 30 30
l0 29 88 3 c86 3 87 3 90 30 3 25 7 27 60 30 54 3 57 5 60 30 2 21 9 28 30 30
18 2 28 10 32 28 4 15 15 26 30 30 15 4 26 15 30 30 4 15 15 26 30 30 23 5 25
12 28 63 3 57 11 65 55 58 4 -1 6 52 5 116 l-3 118 -27 3 c-25 3 -27 7 -30 60
-3 54 -5 57 -30 60 -27 3 -28 5 -28 62 0 56 -1 59 -27 62 -19 2 -29 10 -33 28
-4 15 -15 26 -30 30 -15 4 -26 15 -30 30 -4 18 -14 26 -33 28 l-27 3 -2 177
-3 177 -27 3 -28 3 0 90 0 89 -30 0 -30 0 0 89 0 90 -27 3 c-19 2 -29 10 -33
28 -4 15 -15 26 -30 30 -15 4 -26 15 -30 30 -4 15 -15 26 -30 30 -15 4 -26 15
-30 30 -4 15 -15 26 -30 30 -15 4 -26 15 -30 30 -4 15 -15 26 -30 30 -18 4
-26 14 -28 33 -3 26 -6 27 -63 27 -59 0 -59 0 -59 30 l0 30 -90 0 -90 0 0 30
0 30 -90 0 -90 0 0 30 0 30 -150 0 -150 0 0 30 0 30 -210 -1 -210 -1 0 -29z
m-247 -606 c-3 -7 -20 -14 -39 -14 -19 -1 -40 -2 -46 -3 -29 -5 -30 9 -3 20
38 16 94 14 88 -3z"/>
</g>
</svg>
